<?xml version="1.0" standalone="no"?>
<svg xmlns:xlink="http://www.w3.org/1999/xlink" id="wave" style="transform:rotate(180deg); transition: 0.3s" viewBox="0 0 1440 450" version="1.1" xmlns="http://www.w3.org/2000/svg"><defs><linearGradient id="sw-gradient-0" x1="0" x2="0" y1="1" y2="0"><stop stop-color="rgba(255, 217, 102, 1)" offset="0%"/><stop stop-color="rgba(255, 106.568, 11, 1)" offset="100%"/></linearGradient></defs><path style="transform:translate(0, 0px); opacity:1" fill="url(#sw-gradient-0)" d="M0,360L90,45L180,135L270,315L360,180L450,225L540,225L630,135L720,135L810,360L900,45L990,180L1080,360L1170,45L1260,270L1350,0L1440,45L1530,405L1620,270L1710,405L1800,45L1890,360L1980,90L2070,45L2160,0L2160,450L2070,450L1980,450L1890,450L1800,450L1710,450L1620,450L1530,450L1440,450L1350,450L1260,450L1170,450L1080,450L990,450L900,450L810,450L720,450L630,450L540,450L450,450L360,450L270,450L180,450L90,450L0,450Z"/></svg>